<?xml version="1.0" encoding="UTF-8"?>
<svg width="200" height="200" viewBox="0 0 200 200" xmlns="http://www.w3.org/2000/svg">
  <!-- Teléfono con Google Maps abierto -->
  <rect x="50" y="30" width="100" height="170" rx="10" fill="#333" />
  <rect x="60" y="40" width="80" height="140" rx="5" fill="#F8F8F8" />
  <circle cx="100" cy="190" r="10" fill="#555" />
  
  <!-- Interfaz de Google Maps -->
  <rect x="60" y="40" width="80" height="20" fill="#4285F4" />
  <rect x="70" y="45" width="50" height="10" rx="5" fill="#FFFFFF" opacity="0.8" />
  
  <!-- Mapa -->
  <rect x="60" y="60" width="80" height="120" fill="#E0F2F1" />
  
  <!-- Calles -->
  <path d="M60,90 L140,90 M60,120 L140,120 M80,60 L80,180 M120,60 L120,180" stroke="#FFFFFF" stroke-width="3" />
  <path d="M60,90 L140,90 M60,120 L140,120 M80,60 L80,180 M120,60 L120,180" stroke="#CCCCCC" stroke-width="1" />
  
  <!-- Pin de ubicación -->
  <circle cx="100" cy="105" r="15" fill="#4285F4" opacity="0.8" />
  <circle cx="100" cy="105" r="5" fill="#4285F4" />
  
  <!-- Ruta -->
  <path d="M100,105 L120,140" stroke="#4285F4" stroke-width="3" stroke-dasharray="5,2" />
  <circle cx="120" cy="140" r="5" fill="#EA4335" />
  
  <!-- Icono de navegación -->
  <circle cx="100" cy="160" r="15" fill="#FFFFFF" />
  <path d="M100,150 L105,165 L100,160 L95,165 Z" fill="#4285F4" />
</svg>